#!OML:ASF E:\emotionWalksFemale\Project 1\Capture day 1\Session 1\Female1.ASF
:FULLY-SPECIFIED
:DEGREES
1281
root 9.44092 14.9712 -19.575 173.908 -174.124 184.352
lowerback -0.113152 -8.43467 -2.00161
upperback -6.61638 -11.0973 5.96067
thorax -5.28141 -5.29306 7.71449
lowerneck -2.80392 7.45693 7.86742
upperneck 25.3802 11.8794 -9.88849
head 9.49959 5.3834 -3.62995
rclavicle 1.04958e-013 9.54166e-015
rhumerus -57.5074 -15.0905 -38.8912
rradius 38.3581
rwrist 6.75588
rhand -5.28651 -57.5037
rfingers 7.12502
rthumb 20.5181 -86.4395
lclavicle 1.04958e-013 9.54166e-015
lhumerus -40.6668 -24.0932 112.158
lradius 46.8933
lwrist -16.2714
lhand 21.2911 -34.1874
lfingers 7.12502
lthumb 45.7359 -10.9837
rfemur -20.1895 8.32542 27.4235
rtibia 36.2853
rfoot -15.6497 -18.2657
rtoes 1.08843
lfemur 16.257 7.22672 -29.383
ltibia 40.1158
lfoot 18.1887 -7.47243
ltoes -5.52075
1282
root 9.43862 14.9628 -19.4156 173.72 -174.04 184.398
lowerback -0.230252 -8.30044 -2.11003
upperback -6.53509 -10.9275 5.82238
thorax -5.1587 -5.21197 7.59735
lowerneck -2.80029 7.31387 7.86827
upperneck 25.0989 11.6632 -9.93861
head 9.37781 5.28449 -3.6694
rclavicle 4.77083e-015 -1.59028e-014
rhumerus -57.2558 -15.4923 -39.3856
rradius 39.057
rwrist 4.71998
rhand -6.48321 -58.2106
rfingers 7.12502
rthumb 19.3678 -87.266
lclavicle 4.77083e-015 -1.59028e-014
lhumerus -41.2822 -24.6732 112.25
lradius 47.3848
lwrist -15.8067
lhand 22.9796 -33.9547
lfingers 7.12502
lthumb 47.3 -11.4218
rfemur -19.4642 7.95962 27.5442
rtibia 36.4276
rfoot -15.7256 -18.5749
rtoes -0.0507385
lfemur 15.3336 7.31066 -28.8051
ltibia 42.4252
lfoot 20.4558 -8.74113
ltoes -7.06774
1283
root 9.43671 14.9648 -19.2642 173.741 -173.928 184.144
lowerback -0.326626 -8.18335 -1.84476
upperback -6.54487 -10.7617 5.78092
thorax -5.19233 -5.14022 7.39979
lowerneck -2.71184 7.22695 7.85348
upperneck 24.7456 11.527 -9.98793
head 9.22293 5.22636 -3.69898
rclavicle -5.24792e-014 2.8625e-014
rhumerus -57.0284 -15.7662 -39.6545
rradius 39.5472
rwrist 3.63004
rhand -6.10566 -57.955
rfingers 7.12502
rthumb 19.7308 -86.9736
lclavicle -5.24792e-014 2.8625e-014
lhumerus -41.7992 -24.9022 112.113
lradius 47.7907
lwrist -15.5414
lhand 22.8061 -33.6783
lfingers 7.12502
lthumb 47.1396 -11.0738
rfemur -18.787 7.79197 27.9023
rtibia 36.453
rfoot -16.2367 -18.4853
rtoes 1.1695
lfemur 13.9042 7.42191 -27.8763
ltibia 44.8455
lfoot 22.5153 -8.95552
ltoes -5.25622
1284
root 9.43289 14.9908 -19.1195 173.826 -173.71 183.56
lowerback -0.195367 -8.08036 -1.27624
upperback -6.59558 -10.597 5.88527
thorax -5.4234 -5.07201 7.23813
lowerneck -2.47904 7.22322 7.67146
upperneck 24.2638 11.4792 -9.85963
head 8.9857 5.21907 -3.6333
rclavicle -2.3059e-014 3.81667e-014
rhumerus -56.6365 -15.8881 -39.9271
rradius 39.8894
rwrist 3.1536
rhand -4.92583 -58.0593
rfingers 7.12502
rthumb 20.8647 -86.9573
lclavicle -2.3059e-014 3.81667e-014
lhumerus -42.0745 -24.7772 111.696
lradius 48.2163
lwrist -14.997
lhand 22.9678 -33.1568
lfingers 7.12502
lthumb 47.2891 -10.619
rfemur -18.0688 7.77911 28.6054
rtibia 36.3973
rfoot -16.7633 -18.3433
rtoes 2.0153
lfemur 12.5425 7.91194 -26.3246
ltibia 47.3594
lfoot 23.7877 -9.52851
ltoes -6.64019
1285
root 9.43225 14.9817 -18.979 173.701 -173.415 183.039
lowerback 0.101236 -7.95876 -0.811308
upperback -6.55804 -10.4096 5.9754
thorax -5.63984 -4.9901 7.13207
lowerneck -2.37017 7.25582 7.4768
upperneck 23.8912 11.4728 -9.66196
head 8.81114 5.22978 -3.5343
rclavicle -1.11319e-014 1.59028e-014
rhumerus -56.1594 -16.2557 -39.8912
rradius 39.8673
rwrist 3.73577
rhand -2.96509 -57.1759
rfingers 7.12502
rthumb 22.7475 -85.8548
lclavicle -1.11319e-014 1.59028e-014
lhumerus -42.2505 -24.5128 111.208
lradius 48.7608
lwrist -14.2272
lhand 23.4652 -32.0825
lfingers 7.12502
lthumb 47.7484 -9.75312
rfemur -17.2314 7.75367 29.3006
rtibia 36.2934
rfoot -17.0288 -18.4271
rtoes 2.23187
lfemur 11.2772 8.19382 -25.131
ltibia 50.0101
lfoot 24.0465 -9.43426
ltoes -8.35354
1286
root 9.43657 14.9706 -18.8327 173.472 -173.067 182.706
lowerback 0.256981 -7.84301 -0.452885
upperback -6.40493 -10.2402 5.99513
thorax -5.64342 -4.92313 6.96877
lowerneck -2.40827 7.34834 7.37447
upperneck 23.5746 11.5534 -9.51357
head 8.70163 5.27924 -3.45373
rclavicle 3.18055e-014 -1.27222e-014
rhumerus -55.407 -16.28 -40.4983
rradius 39.8659
rwrist 3.18584
rhand -3.17837 -57.5235
rfingers 7.12502
rthumb 22.5428 -86.2274
lclavicle 3.18055e-014 -1.27222e-014
lhumerus -42.3037 -23.9718 110.569
lradius 49.1538
lwrist -14.045
lhand 22.5301 -31.3657
lfingers 7.12502
lthumb 46.8843 -8.64867
rfemur -16.2418 7.75335 29.7693
rtibia 36.1219
rfoot -17.4806 -18.2625
rtoes 2.99157
lfemur 10.1362 8.55234 -24.2071
ltibia 52.7777
lfoot 22.7882 -9.34436
ltoes -11.8226
1287
root 9.43883 14.9617 -18.6954 173.492 -172.656 182.06
lowerback 0.265478 -7.7052 0.193573
upperback -6.24515 -10.0291 6.10223
thorax -5.59317 -4.84903 6.71716
lowerneck -2.56673 7.41571 7.33722
upperneck 23.3213 11.5862 -9.34158
head 8.63426 5.30813 -3.37703
rclavicle 6.91771e-014 -1.90833e-014
rhumerus -54.4557 -16.4302 -41.2631
rradius 39.5836
rwrist 2.59816
rhand -3.86442 -57.8827
rfingers 7.12502
rthumb 21.8841 -86.6651
lclavicle 6.91771e-014 -1.90833e-014
lhumerus -42.3387 -23.305 109.814
lradius 49.265
lwrist -14.4818
lhand 19.7431 -31.8948
lfingers 7.12502
lthumb 44.2957 -8.12306
rfemur -15.5203 7.89386 30.5577
rtibia 36.0363
rfoot -18.0154 -17.8346
rtoes 3.7536
lfemur 8.67067 8.93192 -22.9033
ltibia 55.7184
lfoot 20.641 -9.69766
ltoes -15.2595
1288
root 9.43639 14.9518 -18.5736 173.743 -172.295 181.241
lowerback 0.400797 -7.53089 0.934785
upperback -6.20731 -9.75629 6.22872
thorax -5.76102 -4.73993 6.46895
lowerneck -2.8399 7.35657 7.55781
upperneck 23.2886 11.462 -9.32694
head 8.67378 5.26129 -3.4099
rclavicle 6.59965e-014 1.59028e-014
rhumerus -53.7058 -17.2026 -41.3164
rradius 38.8535
rwrist 4.37498
rhand -1.28949 -55.8411
rfingers 7.12502
rthumb 24.3547 -84.3136
lclavicle 6.59965e-014 1.59028e-014
lhumerus -42.5381 -22.7799 109.057
lradius 49.2996
lwrist -14.8451
lhand 16.1651 -32.9149
lfingers 7.12502
lthumb 40.9472 -7.98174
rfemur -15.0146 8.08511 31.5317
rtibia 35.8506
rfoot -18.3354 -17.6737
rtoes 4.5026
lfemur 6.74614 9.22357 -21.369
ltibia 58.731
lfoot 18.6761 -10.4478
ltoes -16.087
1289
root 9.43955 14.9399 -18.4496 173.953 -171.806 180.499
lowerback 0.589553 -7.32522 1.69722
upperback -6.19187 -9.4357 6.32327
thorax -5.99209 -4.60776 6.18334
lowerneck -3.03358 7.2934 7.92081
upperneck 23.2888 11.3706 -9.52319
head 8.7343 5.2252 -3.53866
rclavicle 1.4074e-013 -6.36111e-015
rhumerus -52.8899 -17.4235 -41.9167
rradius 38.2678
rwrist 5.21898
rhand -0.48597 -55.0127
rfingers 7.12502
rthumb 25.1248 -83.3795
lclavicle 1.4074e-013 -6.36111e-015
lhumerus -42.6552 -22.1943 108.237
lradius 49.38
lwrist -14.4979
lhand 13.3947 -33.3991
lfingers 7.12502
lthumb 38.3385 -7.69272
rfemur -14.3829 8.30017 32.4199
rtibia 35.5073
rfoot -18.1425 -17.6623
rtoes 3.50551
lfemur 4.79045 9.43102 -20.0799
ltibia 61.653
lfoot 16.7711 -11.3301
ltoes -16.0227
